<svg width="44" height="54" viewBox="0 0 44 54" fill="none" xmlns="http://www.w3.org/2000/svg">
<g clip-path="url(#clip0_98_37)">
<path d="M18.071 5.01764C17.2274 5.77925 16.4281 6.60806 15.6734 7.51528C15.6645 7.52648 15.6556 7.53768 15.6467 7.54888C15.2116 8.07528 14.7854 8.63529 14.3858 9.20649C14.3592 9.24009 14.3325 9.28489 14.3059 9.3297C14.0751 9.6545 13.8618 9.99052 13.6399 10.3377C13.5955 10.4049 13.56 10.4721 13.5156 10.5281C13.1692 11.0881 12.8496 11.6593 12.5388 12.2529C12.4766 12.3761 12.4144 12.4993 12.3523 12.6225C12.228 12.8689 12.1036 13.1265 11.9793 13.3842C11.8994 13.5521 11.8284 13.709 11.7573 13.8769C11.6863 14.0338 11.6152 14.1906 11.5442 14.3586C11.4288 14.6274 11.3222 14.8962 11.2156 15.165C11.1624 15.2994 11.1091 15.445 11.0558 15.5794C10.9759 15.7922 10.896 16.005 10.8249 16.229C10.7805 16.3522 10.7361 16.4754 10.6917 16.5986C10.5852 16.901 10.4964 17.2146 10.3987 17.5282C10.3632 17.6514 10.3276 17.7745 10.2921 17.8979C10.1944 18.2226 10.1056 18.5474 10.0257 18.8835C9.99909 18.973 9.98132 19.0627 9.96356 19.1522C9.89252 19.4546 9.82148 19.7459 9.75932 20.0483C9.74157 20.1378 9.7238 20.2274 9.69716 20.3171C9.62613 20.6754 9.55509 21.0339 9.50181 21.3922C9.48404 21.4931 9.46628 21.5826 9.4574 21.6834C9.39524 22.0642 9.34196 22.4339 9.29756 22.8258C9.28868 22.8708 9.28868 22.9042 9.2798 22.9491C9.23541 23.3186 9.19988 23.6771 9.16436 24.0467C9.15548 24.1251 9.1466 24.2035 9.1466 24.2819C9.11997 24.6738 9.09332 25.0659 9.07556 25.4579C9.07556 25.5363 9.06669 25.626 9.06669 25.7044C9.04893 26.1188 9.04004 26.5218 9.04004 26.9363C9.04004 27.3507 9.04893 27.7651 9.06669 28.1683C9.06669 28.2467 9.07556 28.3364 9.07556 28.4148C9.09332 28.8067 9.11997 29.1987 9.1466 29.5908C9.15548 29.6692 9.16436 29.7476 9.16436 29.8259C9.19988 30.1956 9.23541 30.5652 9.2798 30.9235C9.28868 30.9683 9.28868 31.0019 9.29756 31.0467C9.34196 31.4277 9.40412 31.8084 9.4574 32.1892C9.47516 32.2899 9.48404 32.3796 9.50181 32.4803C9.56397 32.8388 9.62613 33.2084 9.69716 33.5556C9.71492 33.6451 9.73268 33.7349 9.75932 33.8244C9.82148 34.1268 9.89252 34.4292 9.96356 34.7204C9.98132 34.81 10.008 34.8997 10.0257 34.9892C10.1056 35.3252 10.2033 35.6501 10.2921 35.9748C10.3276 36.098 10.3632 36.2213 10.3987 36.3445C10.4964 36.658 10.5852 36.9717 10.6917 37.2741C10.7361 37.3973 10.7805 37.5204 10.8249 37.6436C10.896 37.8565 10.9759 38.0693 11.0558 38.2933C11.1091 38.4276 11.1624 38.5733 11.2156 38.7077C11.3222 38.9765 11.4288 39.2453 11.5442 39.5141C11.6152 39.6708 11.6863 39.8389 11.7573 39.9957C11.8284 40.1636 11.9083 40.3204 11.9793 40.4885C12.1036 40.7461 12.2191 41.0038 12.3523 41.2501C12.4144 41.3732 12.4766 41.4966 12.5388 41.6197C12.8496 42.2134 13.1781 42.7846 13.5156 43.3446C13.56 43.4117 13.5955 43.4789 13.6399 43.535C13.853 43.871 14.0751 44.207 14.3059 44.5429C14.3325 44.5878 14.3592 44.6214 14.3858 44.6662C14.7854 45.2374 15.2116 45.7974 15.6467 46.3238C15.6556 46.335 15.6645 46.3461 15.6734 46.3574C16.4193 47.2533 17.2274 48.0935 18.071 48.855V5.01764Z" fill="#FFE910"/>
<path d="M31.5682 0C27.5544 0 23.7981 1.40002 20.5747 3.83045V5.01766V48.8662V50.0535C23.7981 52.4838 27.5544 53.8838 31.5682 53.8838H43.7071V0H31.5682Z" fill="#FF254A"/>
<path d="M6.89087 26.9364C6.89087 16.6546 11.0822 7.57129 17.4403 2.25123C16.7388 0.90721 15.5311 0 14.1636 0H3.91608C1.75824 0 0 2.21762 0 4.93926V48.9559C0 51.6663 1.75824 53.8951 3.91608 53.8951H14.1636C15.5311 53.8951 16.7477 52.9879 17.4403 51.6327C11.0911 46.3013 6.89087 37.2293 6.89087 26.9364Z" fill="#1CEAE4"/>
</g>
<defs>
<clipPath id="clip0_98_37">
<rect width="44" height="54" fill="white"/>
</clipPath>
</defs>
</svg>
