<?xml version="1.0" encoding="UTF-8" standalone="no"?>
<!-- Generator: Adobe Illustrator 19.0.0, SVG Export Plug-In . SVG Version: 6.00 Build 0)  -->

<svg
   xmlns:dc="http://purl.org/dc/elements/1.1/"
   xmlns:cc="http://creativecommons.org/ns#"
   xmlns:rdf="http://www.w3.org/1999/02/22-rdf-syntax-ns#"
   xmlns:svg="http://www.w3.org/2000/svg"
   xmlns="http://www.w3.org/2000/svg"
   xmlns:sodipodi="http://sodipodi.sourceforge.net/DTD/sodipodi-0.dtd"
   xmlns:inkscape="http://www.inkscape.org/namespaces/inkscape"
   version="1.1"
   id="Layer_1"
   x="0px"
   y="0px"
   viewBox="0 0 700 700"
   xml:space="preserve"
   sodipodi:docname="usp-logo.svg"
   width="700"
   height="700"
   inkscape:version="0.92.4 (5da689c313, 2019-01-14)"
   inkscape:export-filename="C:\Users\suitedoalex\sites\usp-logo-0.png"
   inkscape:export-xdpi="561.73712"
   inkscape:export-ydpi="561.73712"><metadata
   id="metadata14"><rdf:RDF><cc:Work
       rdf:about=""><dc:format>image/svg+xml</dc:format><dc:type
         rdf:resource="http://purl.org/dc/dcmitype/StillImage" /><dc:title></dc:title></cc:Work></rdf:RDF></metadata><defs
   id="defs12" /><sodipodi:namedview
   pagecolor="#ffffff"
   bordercolor="#666666"
   borderopacity="1"
   objecttolerance="10"
   gridtolerance="10"
   guidetolerance="10"
   inkscape:pageopacity="0"
   inkscape:pageshadow="2"
   inkscape:window-width="1600"
   inkscape:window-height="837"
   id="namedview10"
   showgrid="false"
   inkscape:zoom="0.2979798"
   inkscape:cx="309.57065"
   inkscape:cy="645.24595"
   inkscape:window-x="-8"
   inkscape:window-y="-8"
   inkscape:window-maximized="1"
   inkscape:current-layer="XMLID_9_" />
<style
   type="text/css"
   id="style2">
	.st0{fill:#FDFDFD;}
	.st1{fill:#090C0D;}
</style>
<g
   id="XMLID_1_"
   transform="translate(0,-92)">
	<g
   id="XMLID_9_">
		
		<path
   id="XMLID_11_"
   class="st1"
   d="m 271.40553,521.63523 c -2.21318,3.24074 -4.55811,6.24436 -7.27189,8.9318 -5.7701,5.74374 -12.75218,9.43239 -20.39294,12.01444 -3.53056,1.18563 -7.11382,1.71259 -10.82881,1.71259 -28.13909,0.0263 -56.27818,0.0263 -84.44361,0.15807 -6.74495,0.0263 -13.042,-1.42275 -19.18096,-4.11019 -9.22161,-4.03117 -16.51985,-10.35456 -21.84205,-18.86478 -2.42396,-3.87308 -3.6096,-8.29946 -5.1114,-12.5941 -1.21199,-3.47786 -1.60719,-7.08746 -1.60719,-10.72341 -0.0527,-12.38331 -0.0263,-24.76662 -0.0263,-37.14993 -0.0263,-39.86371 -0.0527,-81.56402 -0.10539,-121.45408 0,0 0,-0.008 1.89702,-0.008 53.53805,0 108.61281,0 162.15085,-0.0263 0,0 0.0441,0.26347 -0.009,1.5545 -0.1054,3.50421 -0.079,7.03477 0,10.53898 0.0263,1.13295 -0.0424,1.52815 -0.0424,1.52815 -21.78935,-0.0263 -44.95912,0 -66.74847,-0.0263 -1.26468,0 -1.44911,0.004 -1.44911,0.004 0.0263,46.81945 0,96.62144 0.0263,143.44088 0,0 -0.23712,0.12229 -1.5545,0.0959 -3.50421,-0.10539 -7.03477,-0.079 -10.53898,0 -1.13295,0.0263 -1.55451,-0.0296 -1.55451,-0.0296 0.0527,-13.62164 0.10539,-28.66276 0.0263,-42.2844 -0.18444,-33.32955 -0.0263,-67.83139 -0.0527,-101.16093 0,0 -0.21079,-0.0397 -1.21198,-0.0397 -21.94744,0.0263 -43.92123,0.0263 -65.86866,0 -0.92217,0 -1.23834,-0.075 -1.23834,-0.075 0.0263,48.61108 -0.0263,98.48281 0.13174,147.09388 0.0263,4.63715 1.79163,9.08987 4.18925,13.22642 5.74375,9.98569 14.46475,15.41327 25.63608,17.31029 0.52695,0.079 1.0539,0.079 1.58085,0.079 28.32352,0 56.64704,-0.0263 84.97056,0.0263 6.61322,0.0263 12.56775,-1.94971 18.04802,-5.48027 6.95573,-4.50541 11.46115,-10.96054 14.17493,-18.7067 0.89582,-2.58205 1.00121,-5.40122 1.23834,-8.16771 0.15808,-1.92337 0.18001,-1.92337 0.18001,-1.92337 3.63595,0 10.14428,0.0263 13.78023,-0.0263 0,0 0.0302,0.18443 0.1093,1.05389 0.52695,7.16651 2.6084,13.80607 6.95573,19.62887 5.63836,7.58807 13.27912,11.85635 22.55343,13.33181 1.39641,0.21078 2.79283,0.23713 4.18924,0.23713 26.0313,0 52.08894,0.079 78.12023,-0.0263 5.50662,-0.0263 10.51264,-2.13414 15.12344,-5.03235 7.45634,-4.74255 12.5414,-11.40846 15.01806,-19.89234 1.18564,-4.03117 1.21198,-8.29945 1.29103,-12.51504 0.13173,-6.90304 -0.26348,-14.39152 -0.31618,-21.26821 0,0 -0.34251,-0.41576 -0.73773,-0.83732 l -76.2759,-76.27591 c -0.68503,-0.68503 -1.34372,-1.37007 -2.0551,-2.0551 -0.47426,-0.4479 -0.6895,-0.75093 -0.6895,-0.75093 2.74014,-2.6084 7.27405,-6.90585 10.14592,-9.38252 0,0 0.0813,0.0951 0.97718,0.99088 11.01324,11.09228 22.05282,22.15821 33.09241,33.22415 16.17734,16.23004 32.35468,32.46008 48.58472,48.66377 0.68503,0.68504 0.94851,0.95498 0.94851,0.95498 -0.0263,10.14376 0.18443,21.59845 -0.079,31.74222 -0.21078,7.8779 -2.39762,15.41327 -6.27069,22.26361 -4.95333,8.74736 -12.46235,14.91266 -21.39414,19.39173 -5.90183,2.95092 -12.14619,4.32098 -18.70671,4.34734 -25.8732,0.0527 -51.72006,0.0527 -77.59327,0.18443 -4.68985,0.0263 -9.11623,-0.92217 -13.46355,-2.31858 -7.40364,-2.34493 -13.72703,-6.58687 -19.36539,-11.80367 -2.18684,-2.02875 -3.82039,-4.66349 -5.7174,-7.03477 -0.47426,-0.52695 -0.89582,-1.08024 -1.39642,-1.68624 z"
   inkscape:connector-curvature="0"
   style="fill:#000000;stroke-width:0.26347461"
   sodipodi:nodetypes="cccccccccccsccccccccccccccccccscccccccccsccccccsccccccccccccccccc"
   inkscape:export-filename="C:\Users\suitedoalex\sites\usp-logo-4.png"
   inkscape:export-xdpi="76.983215"
   inkscape:export-ydpi="76.983215" />
		<path
   id="XMLID_10_"
   class="st1"
   d="m 428.59449,362.52291 c 2.45032,-3.21439 4.79524,-6.34975 7.58808,-9.08988 7.19285,-7.08746 15.70308,-11.56654 25.76782,-12.96295 3.74133,-0.52695 7.48268,-0.79043 11.27671,-0.79043 25.87321,0.0263 51.72007,0.079 77.59327,-0.0263 10.90786,-0.0263 20.78816,3.10901 29.37743,9.64318 9.80126,7.45633 15.88753,17.44202 18.28514,29.5882 0.60599,3.109 0.79042,6.24434 0.79042,9.40604 0,25.08279 0,50.13923 0.0263,75.22201 0,3.82038 0,8.8326 0.10539,12.65298 0,0 -0.26347,0.0729 -1.29103,0.0729 -26.34746,-0.0263 -52.69492,-0.0263 -79.04239,-0.0263 -1.73892,0 -1.73892,-0.0115 -1.73892,-0.0115 0,21.68396 0,45.1184 0.0263,66.80236 0,1.21199 -0.31617,1.47546 -1.5018,1.47546 -26.40017,-0.0263 -54.16607,-0.0263 -80.56624,0 0,0 -0.004,-0.18443 0.022,-1.31738 0.079,-3.63594 0.079,-7.29825 0,-10.93419 -0.0263,-1.0539 -0.009,-1.26468 -0.009,-1.26468 21.8157,0.0263 44.95704,0 66.77274,0.0527 1.31738,0 1.52815,-0.36887 1.52815,-1.58085 -0.0263,-46.84578 -0.0263,-93.69158 -0.0527,-140.56372 0,-1.18563 0.0296,-1.47546 0.0296,-1.47546 3.63595,0.079 10.03361,0.1054 13.66956,0 0,0 0.0806,0.36887 0.0806,1.44911 -0.0263,23.97619 -0.0263,49.65658 -0.0263,73.63276 0,0 -0.21078,0.008 1.76528,0.008 21.73667,0 43.47332,0 65.20998,0.0263 1.15929,0 1.52815,-0.0204 1.52815,-0.0204 -0.0527,-17.2049 0,-35.89125 -0.10539,-53.09614 -0.0527,-7.16652 0.10539,-14.30667 -0.10539,-21.47318 -0.31617,-10.59168 -3.97847,-19.83964 -12.27791,-26.71633 -3.76769,-3.13535 -8.29946,-5.1641 -12.98931,-6.71861 -3.16169,-1.05389 -6.48148,-1.29102 -9.72221,-1.29102 -26.79538,-0.079 -53.56441,-0.13174 -80.35977,0 -10.27551,0.0527 -19.1546,3.76769 -26.13668,11.51384 -5.2168,5.77009 -8.16771,12.5414 -8.56293,20.36659 -0.13174,2.37127 -0.26202,2.37127 -0.26202,2.37127 -3.34613,0 -10.45634,-0.079 -13.80247,0.0263 0,0 0.0212,-0.36887 -0.0578,-1.55451 -0.36886,-5.92817 -1.94971,-11.54018 -5.13775,-16.5989 -5.21679,-8.3258 -12.83121,-13.22642 -22.23725,-15.43961 -2.58206,-0.60599 -5.29584,-0.73773 -7.98328,-0.73773 -26.42651,0 -52.87936,-0.0527 -79.30587,0 -15.46596,0.0527 -28.19178,8.95814 -33.43492,23.44925 -1.05391,2.89822 -1.29103,5.90183 -1.50181,8.87909 -0.57965,8.53657 -0.26348,17.74837 -0.31617,26.3113 0,0 0.36887,0.37868 0.76407,0.77389 7.42999,7.48268 14.85998,14.93902 22.28996,22.4217 10.27551,10.32821 20.55102,20.65641 30.82653,31.01096 8.35215,8.40484 17.5474,17.6371 25.92589,26.01559 0,0 -0.15807,0.22649 -0.86945,0.93787 -2.42397,2.39762 -4.63716,5.03236 -7.29825,7.2192 -1.52815,1.23833 -1.4592,1.07283 -1.4592,1.07283 -21.26239,-21.2624 -43.99017,-43.78206 -65.22623,-65.04447 -5.92817,-5.90183 -11.80366,-11.80367 -17.70549,-17.7055 -0.5006,-0.5006 -0.73773,-0.79494 -0.73773,-0.79494 0,-10.45994 -0.23713,-21.81118 0.0527,-32.27113 0.23713,-8.29944 2.5557,-16.15099 6.98208,-23.21211 5.03236,-8.06232 12.11983,-13.80607 20.57736,-18.04801 5.13776,-2.58205 10.64438,-3.53056 16.28274,-4.2156 2.37127,-0.28982 4.7162,-0.26347 7.08747,-0.26347 25.76781,0 51.56198,0.0263 77.32979,-0.0263 17.67915,-0.0263 31.2481,7.64076 41.49726,21.763 0.21078,0.31617 0.44791,0.63235 0.76407,1.10659 z"
   inkscape:connector-curvature="0"
   style="fill:#000000;stroke-width:0.26347461"
   sodipodi:nodetypes="cccccccscccssccccccccccccssccccccccccsccccscccccccsccscssccccscccc"
   inkscape:export-filename="C:\Users\suitedoalex\sites\usp-logo-4.png"
   inkscape:export-xdpi="76.983215"
   inkscape:export-ydpi="76.983215" />
	</g>
</g>
</svg>